<svg width="17" height="18" viewBox="0 0 17 18" fill="none" xmlns="http://www.w3.org/2000/svg">
<g id="Frame">
<path id="Vector" d="M8.5 6.16675V9.00008L10.625 11.1251" stroke="white" stroke-width="0.708333" stroke-linecap="round" stroke-linejoin="round"/>
<path id="Vector_2" d="M14.875 9C14.875 9.83718 14.7101 10.6662 14.3897 11.4396C14.0694 12.2131 13.5998 12.9158 13.0078 13.5078C12.4158 14.0998 11.7131 14.5694 10.9396 14.8897C10.1662 15.2101 9.33718 15.375 8.5 15.375C7.66282 15.375 6.83384 15.2101 6.06039 14.8897C5.28694 14.5694 4.58417 14.0998 3.99219 13.5078C3.40022 12.9158 2.93064 12.2131 2.61027 11.4396C2.28989 10.6662 2.125 9.83718 2.125 9C2.125 7.30924 2.79665 5.68774 3.99219 4.49219C5.18774 3.29665 6.80924 2.625 8.5 2.625C10.1908 2.625 11.8123 3.29665 13.0078 4.49219C14.2033 5.68774 14.875 7.30924 14.875 9Z" stroke="white" stroke-width="0.708333" stroke-linecap="round" stroke-linejoin="round"/>
</g>
</svg>
