<svg width="100" height="100" viewBox="0 0 100 100" fill="none" xmlns="http://www.w3.org/2000/svg">
<g id="Frame">
<path id="Vector" d="M8.33333 83.3334H8.37499" stroke="#B45434" stroke-width="4.16667" stroke-linecap="round" stroke-linejoin="round"/>
<path id="Vector_2" d="M8.33333 67.0834C12.337 67.8999 16.0123 69.8758 18.9016 72.7651C21.7909 75.6545 23.7668 79.3297 24.5833 83.3334" stroke="#B45434" stroke-width="4.16667" stroke-linecap="round" stroke-linejoin="round"/>
<path id="Vector_3" d="M8.33333 50.2084C16.795 51.1495 24.6845 54.9419 30.7046 60.9621C36.7248 66.9822 40.5172 74.8717 41.4583 83.3334" stroke="#B45434" stroke-width="4.16667" stroke-linecap="round" stroke-linejoin="round"/>
<path id="Vector_4" d="M8.33333 33.3333V25C8.33333 22.7898 9.2113 20.6702 10.7741 19.1074C12.3369 17.5446 14.4565 16.6666 16.6667 16.6666H83.3333C85.5435 16.6666 87.6631 17.5446 89.2259 19.1074C90.7887 20.6702 91.6667 22.7898 91.6667 25V75C91.6667 77.2101 90.7887 79.3297 89.2259 80.8925C87.6631 82.4553 85.5435 83.3333 83.3333 83.3333H58.3333" stroke="#B45434" stroke-width="4.16667" stroke-linecap="round" stroke-linejoin="round"/>
</g>
</svg>
