<svg width="100" height="100" viewBox="0 0 100 100" fill="none" xmlns="http://www.w3.org/2000/svg">
<g id="Frame">
<path id="Vector" d="M70.8333 87.5V79.1667C70.8333 74.7464 69.0774 70.5072 65.9518 67.3816C62.8262 64.256 58.5869 62.5 54.1667 62.5H20.8333C16.4131 62.5 12.1738 64.256 9.04823 67.3816C5.92262 70.5072 4.16667 74.7464 4.16667 79.1667V87.5" stroke="#B45434" stroke-width="4.16667" stroke-linecap="round" stroke-linejoin="round"/>
<path id="Vector_2" d="M37.5 12.5C33.0797 12.5 28.8405 14.2559 25.7149 17.3816C22.5893 20.5072 20.8333 24.7464 20.8333 29.1667C20.8333 33.5869 22.5893 37.8262 25.7149 40.9518C28.8405 44.0774 33.0797 45.8333 37.5 45.8333C41.9203 45.8333 46.1595 44.0774 49.2851 40.9518C52.4107 37.8262 54.1667 33.5869 54.1667 29.1667C54.1667 24.7464 52.4107 20.5072 49.2851 17.3816C46.1595 14.2559 41.9203 12.5 37.5 12.5Z" stroke="#B45434" stroke-width="4.16667" stroke-linecap="round" stroke-linejoin="round"/>
<path id="Vector_3" d="M95.8333 87.5V79.1666C95.8306 75.4738 94.6015 71.8865 92.339 68.9679C90.0766 66.0494 86.9089 63.9648 83.3333 63.0416" stroke="#B45434" stroke-width="4.16667" stroke-linecap="round" stroke-linejoin="round"/>
<path id="Vector_4" d="M66.6667 13.0416C70.2517 13.9595 73.4293 16.0445 75.6985 18.9679C77.9677 21.8913 79.1993 25.4867 79.1993 29.1875C79.1993 32.8882 77.9677 36.4836 75.6985 39.407C73.4293 42.3304 70.2517 44.4154 66.6667 45.3333" stroke="#B45434" stroke-width="4.16667" stroke-linecap="round" stroke-linejoin="round"/>
</g>
</svg>
