<svg width="30" height="31" viewBox="0 0 30 31" fill="none" xmlns="http://www.w3.org/2000/svg">
<g id="instagram_svgrepo.com">
<path id="Vector" fill-rule="evenodd" clip-rule="evenodd" d="M15 23C19.1421 23 22.5 19.6421 22.5 15.5C22.5 11.3579 19.1421 8 15 8C10.8579 8 7.5 11.3579 7.5 15.5C7.5 19.6421 10.8579 23 15 23ZM15 20.5C17.7614 20.5 20 18.2614 20 15.5C20 12.7386 17.7614 10.5 15 10.5C12.2386 10.5 10 12.7386 10 15.5C10 18.2614 12.2386 20.5 15 20.5Z" fill="#D4A090"/>
<path id="Vector_2" d="M22.5 6.75C21.8096 6.75 21.25 7.30965 21.25 8C21.25 8.69035 21.8096 9.25 22.5 9.25C23.1904 9.25 23.75 8.69035 23.75 8C23.75 7.30965 23.1904 6.75 22.5 6.75Z" fill="#D4A090"/>
<path id="Vector_3" fill-rule="evenodd" clip-rule="evenodd" d="M2.06745 5.84508C1.25 7.44941 1.25 9.54961 1.25 13.75V17.25C1.25 21.4504 1.25 23.5506 2.06745 25.1549C2.7865 26.5661 3.93385 27.7135 5.34508 28.4325C6.94941 29.25 9.04961 29.25 13.25 29.25H16.75C20.9504 29.25 23.0506 29.25 24.6549 28.4325C26.0661 27.7135 27.2135 26.5661 27.9325 25.1549C28.75 23.5506 28.75 21.4504 28.75 17.25V13.75C28.75 9.54961 28.75 7.44941 27.9325 5.84508C27.2135 4.43385 26.0661 3.2865 24.6549 2.56745C23.0506 1.75 20.9504 1.75 16.75 1.75H13.25C9.04961 1.75 6.94941 1.75 5.34508 2.56745C3.93385 3.2865 2.7865 4.43385 2.06745 5.84508ZM16.75 4.25H13.25C11.1086 4.25 9.65281 4.25195 8.5276 4.34387C7.43155 4.43342 6.87105 4.59574 6.48005 4.79496C5.53924 5.27434 4.77434 6.03924 4.29496 6.98005C4.09574 7.37105 3.93342 7.93155 3.84387 9.0276C3.75195 10.1528 3.75 11.6086 3.75 13.75V17.25C3.75 19.3915 3.75195 20.8471 3.84387 21.9724C3.93342 23.0685 4.09574 23.629 4.29496 24.02C4.77434 24.9607 5.53924 25.7256 6.48005 26.205C6.87105 26.4042 7.43155 26.5666 8.5276 26.6561C9.65281 26.748 11.1086 26.75 13.25 26.75H16.75C18.8915 26.75 20.3471 26.748 21.4724 26.6561C22.5685 26.5666 23.129 26.4042 23.52 26.205C24.4607 25.7256 25.2256 24.9607 25.705 24.02C25.9042 23.629 26.0666 23.0685 26.1561 21.9724C26.248 20.8471 26.25 19.3915 26.25 17.25V13.75C26.25 11.6086 26.248 10.1528 26.1561 9.0276C26.0666 7.93155 25.9042 7.37105 25.705 6.98005C25.2256 6.03924 24.4607 5.27434 23.52 4.79496C23.129 4.59574 22.5685 4.43342 21.4724 4.34387C20.3471 4.25195 18.8915 4.25 16.75 4.25Z" fill="#D4A090"/>
</g>
</svg>
