<svg width="30" height="31" viewBox="0 0 30 31" fill="none" xmlns="http://www.w3.org/2000/svg">
<g id="akar-icons:vk-fill">
<path id="Vector" fill-rule="evenodd" clip-rule="evenodd" d="M29.3125 7.935C29.52 7.2525 29.3125 6.75 28.3188 6.75H25.0375C24.2025 6.75 23.8175 7.18375 23.6087 7.6625C23.6087 7.6625 21.94 11.6575 19.5763 14.2525C18.8113 15.005 18.4638 15.2438 18.0463 15.2438C17.8375 15.2438 17.5238 15.005 17.5238 14.3213V7.935C17.5238 7.115 17.2938 6.75 16.5988 6.75H11.4388C10.9175 6.75 10.6037 7.13 10.6037 7.49125C10.6037 8.2675 11.7863 8.4475 11.9075 10.6325V15.38C11.9075 16.4213 11.7162 16.61 11.2987 16.61C10.1862 16.61 7.48 12.5962 5.87375 8.00375C5.5625 7.11 5.2475 6.75 4.40875 6.75H1.125C0.1875 6.75 0 7.18375 0 7.6625C0 8.515 1.1125 12.75 5.18125 18.3513C7.89375 22.1763 11.7125 24.25 15.1912 24.25C17.2775 24.25 17.535 23.79 17.535 22.9962V20.105C17.535 19.1838 17.7325 19 18.3938 19C18.8813 19 19.715 19.24 21.6625 21.0837C23.8875 23.27 24.2538 24.25 25.5063 24.25H28.7875C29.725 24.25 30.195 23.79 29.925 22.88C29.6275 21.975 28.565 20.6612 27.1563 19.1025C26.3913 18.215 25.2438 17.2588 24.895 16.78C24.4088 16.1663 24.5475 15.8925 24.895 15.3462C24.895 15.3462 28.895 9.81375 29.3112 7.935H29.3125Z" fill="#D4A090"/>
</g>
</svg>
